With: Jason Statham, Paddy Considine en Aidan Gillen

Detective Sergeant Brant (Jason Statham) staat voor hete vuren nadat hij zich heeft misdragen tegenover de politie psychiater. Inspecteur Roberts' vrouw is omgekomen bij een gruwelijk auto-ongeluk en detective Falls probeert haar draai nog te vinden als enige zwarte vrouwelijke detective. Maar wanneer een seriemoordenaar genaamd de "blitz" het op agenten gemunt heeft maakt dit het er voor de drie niet gemakkelijker op.

A tough cop is dispatched to take down a serial killer who has been targeting police officers. 

------------------------ Dutch Friends ------------------------
---------------------------------------------------------------
- Bezoek ook eens mijn vrienden op:  http://www.Film-Test.nl --
----- voor mijn Nederlandse Sync. ondertitels ---- en meer ----
------- http://www.Film-Test.nl ---- voor Films en meer -------
---------------------------------------------------------------

General:

Complete name                    : BlitzBlitz.avi
Format                           : AVI
Format/Info                      : Audio Video Interleave
File size                        : 1.18 GiB
Duration                         : 1h 33mn
Overall bit rate                 : 1 810 Kbps

Video:

Format                           : MPEG-4 Visual
Format profile                   : Simple@L3
Format settings, BVOP            : No
Format settings, QPel            : No
Format settings, GMC             : No warppoints
Format settings, Matrix          : Default (H.263)
Codec ID                         : XVID
Codec ID/Hint                    : XviD
Duration                         : 1h 33mn
Bit rate                         : 1 351 Kbps
Width                            : 720 pixels
Height                           : 304 pixels
Display aspect ratio             : 2.35:1
Frame rate                       : 25.000 fps
Color space                      : YUV
Chroma subsampling               : 4:2:0
Bit depth                        : 8 bits
Scan type                        : Progressive
Compression mode                 : Lossy
Bits/(Pixel*Frame)               : 0.247
Stream size                      : 904 MiB (75%)
Writing library                  : XviD 1.1.2 (UTC 2006-11-01)

Audio:

Format                           : AC-3
Format/Info                      : Audio Coding 3
Mode extension                   : CM (complete main)
Codec ID                         : 2000
Duration                         : 1h 33mn
Bit rate mode                    : Constant
Bit rate                         : 448 Kbps
Channel(s)                       : 6 channels
Channel positions                : Front: L C R, Side: L R, LFE
Sampling rate                    : 48.0 KHz
Bit depth                        : 16 bits
Compression mode                 : Lossy
Stream size                      : 300 MiB (25%)
Alignment                        : Aligned on interleaves
Interleave, duration             : 32 ms (0.80 video frame)
Interleave, preload duration     : 608 ms

